<?xml version="1.0" standalone="no"?>
<!DOCTYPE svg PUBLIC "-//W3C//DTD SVG 20010904//EN"
 "http://www.w3.org/TR/2001/REC-SVG-20010904/DTD/svg10.dtd">
<svg version="1.0" xmlns="http://www.w3.org/2000/svg"
 width="300.000000pt" height="300.000000pt" viewBox="0 0 300.000000 300.000000"
 preserveAspectRatio="xMidYMid meet">

<g transform="translate(0.000000,300.000000) scale(0.100000,-0.100000)"
fill="#000000" stroke="none">
<path d="M1505 2640 c-134 -8 -184 -15 -267 -37 -51 -14 -61 -14 -105 0 -79
26 -184 -9 -246 -82 -14 -17 -27 -28 -30 -25 -10 11 -68 -28 -86 -57 -22 -37
-17 -67 15 -81 29 -14 29 -15 3 -53 -90 -133 -136 -383 -94 -521 8 -27 30 -75
49 -106 l35 -58 -19 -42 c-36 -78 -19 -155 50 -237 47 -55 83 -74 131 -69 32
3 32 3 45 -58 7 -34 20 -77 30 -95 10 -19 19 -41 20 -49 12 -77 24 -197 29
-301 7 -119 6 -127 -11 -133 -11 -3 -86 -19 -169 -35 -244 -48 -362 -124 -481
-306 -42 -63 -114 -241 -114 -280 0 -13 117 -15 1116 -15 l1116 0 -6 23 c-4
12 -11 49 -17 82 -10 64 -47 147 -82 186 -12 13 -35 43 -51 67 -60 88 -167
175 -246 200 -19 6 -78 16 -130 22 -106 12 -271 46 -280 57 -4 5 -2 57 4 117
l11 108 80 27 c44 15 139 58 212 95 101 51 141 77 172 112 68 78 79 110 96
299 8 94 15 179 16 190 0 11 3 66 5 122 l5 102 45 17 c52 20 84 55 84 94 0 38
-65 164 -100 194 -17 14 -30 27 -30 29 0 3 18 23 40 45 59 59 55 120 -11 184
-16 15 -40 30 -54 34 -14 3 -25 10 -25 14 0 12 -109 39 -188 46 -66 6 -75 10
-102 41 -35 39 -159 106 -201 107 -16 1 -29 4 -29 7 0 13 -73 21 -80 9 -5 -8
-9 -7 -13 4 -4 9 -10 15 -14 14 -4 0 -62 -4 -128 -8z m-60 -671 l-37 -41 43
-20 c35 -16 57 -19 110 -15 66 6 211 50 300 91 45 21 47 21 69 4 29 -23 41
-23 139 6 l82 23 28 -36 c28 -36 51 -74 51 -85 0 -3 -6 -6 -14 -6 -17 0 -28
-29 -25 -67 8 -102 -3 -408 -17 -478 -28 -136 -51 -175 -144 -244 -85 -62
-157 -96 -275 -130 -125 -36 -185 -43 -268 -34 -42 5 -77 6 -77 1 0 -17 62
-38 115 -38 36 0 57 -4 60 -12 2 -7 6 -66 10 -130 l6 -117 -29 -15 c-36 -19
-247 -41 -313 -33 -26 3 -66 15 -87 26 l-40 21 -6 72 c-18 230 -21 288 -16
288 4 0 21 -11 40 -25 39 -29 72 -32 91 -9 11 13 8 19 -22 41 -19 15 -61 54
-94 87 -53 54 -64 72 -91 151 l-31 90 -51 5 c-42 5 -56 11 -81 40 -52 59 -72
109 -60 152 5 21 19 44 31 52 12 9 19 19 15 22 -11 12 31 61 67 78 47 22 78
20 134 -8 40 -20 51 -32 62 -66 21 -64 51 -90 103 -90 62 0 98 39 134 144 22
65 27 100 27 176 1 52 -3 110 -7 128 -8 31 -8 32 25 33 18 0 42 4 53 8 32 13
30 4 -10 -40z"/>
<path d="M1615 1784 c-27 -13 -85 -36 -127 -51 -43 -16 -76 -32 -74 -38 9 -27
186 21 274 75 70 43 11 55 -73 14z"/>
<path d="M1976 1792 c-9 -15 26 -40 94 -68 58 -23 110 -26 110 -6 0 4 -37 22
-83 39 -113 45 -114 46 -121 35z"/>
<path d="M1975 1645 c-26 -26 -33 -55 -13 -55 7 0 22 12 33 27 26 31 38 26 65
-28 21 -41 37 -49 46 -24 9 22 -2 57 -26 83 -28 30 -74 29 -105 -3z"/>
<path d="M1608 1633 c-33 -36 -45 -73 -24 -73 9 0 16 3 16 8 0 4 11 19 23 34
31 36 62 30 103 -19 32 -38 52 -34 38 10 -21 70 -107 92 -156 40z"/>
<path d="M923 1579 c-9 -9 -9 -17 -1 -33 7 -12 11 -32 10 -46 l-2 -25 16 23
c18 24 44 30 44 10 0 -29 17 -41 39 -29 26 14 27 51 3 81 -21 25 -91 38 -109
19z"/>
<path d="M1827 1484 c-4 -4 7 -19 24 -34 44 -36 35 -74 -21 -99 -42 -18 -43
-31 -4 -31 52 0 104 47 104 94 0 36 -81 91 -103 70z"/>
<path d="M1575 1271 c-33 -54 104 -201 188 -201 64 0 177 89 177 140 0 12 -14
15 -63 17 -53 1 -99 9 -273 50 -12 3 -25 0 -29 -6z m145 -53 c56 -12 105 -17
143 -14 33 3 57 2 57 -4 0 -20 -44 -31 -123 -32 -84 -1 -141 15 -179 49 -23
21 -23 37 0 27 9 -4 55 -16 102 -26z"/>
</g>
</svg>
